<?xml version="1.0" encoding="UTF-8"?>
<svg width="1297px" height="744px" viewBox="0 0 1297 744" version="1.1" xmlns="http://www.w3.org/2000/svg" xmlns:xlink="http://www.w3.org/1999/xlink">
    <!-- Generator: Sketch 49.3 (51167) - http://www.bohemiancoding.com/sketch -->
    <title>background</title>
    <desc>Created with Sketch.</desc>
    <defs></defs>
    <g id="Third-design" stroke="none" stroke-width="1" fill="none" fill-rule="evenodd">
        <g id="Desktop-HD-Copy" transform="translate(-81.000000, -102.000000)" stroke-width="17">
            <g id="background" transform="translate(83.000000, 60.000000)">
                <polyline id="Path" stroke="#D900FF" transform="translate(112.527372, 617.534015) scale(-1, -1) rotate(64.000000) translate(-112.527372, -617.534015) " points="-13.972628 681.034015 30.077937 611.833856 172.518982 642.637772 239.027372 554.034015"></polyline>
                <polyline id="Path" stroke="#FFC315" transform="translate(636.933939, 759.206802) scale(-1, 1) rotate(191.000000) translate(-636.933939, -759.206802) " points="548.433939 796.206802 579.251923 755.88545 678.904354 773.834188 725.433939 722.206802"></polyline>
                <polyline id="Path" stroke="#1DC415" transform="translate(1170.935104, 121.845115) scale(-1, 1) rotate(65.000000) translate(-1170.935104, -121.845115) " points="1082.4351 158.845115 1113.25309 118.523763 1212.90552 136.472501 1259.4351 84.8451148"></polyline>
                <polyline id="Path" stroke="#15B3C4" transform="translate(1261.681683, 527.681683) scale(-1, 1) rotate(144.000000) translate(-1261.681683, -527.681683) " points="1224.68168 564.681683 1237.56604 524.360331 1279.22864 542.309069 1298.68168 490.681683"></polyline>
                <polyline id="Path" stroke="#4215C4" transform="translate(148.402030, 112.049939) scale(-1, 1) rotate(79.000000) translate(-148.402030, -112.049939) " points="79.4020303 193.402819 154.690651 208.049939 111.713967 136.58009 195.320123 135.996979 147.057338 81.5051854 217.40203 85.0786196 173.749807 16.0499392"></polyline>
                <polyline id="Path" stroke="#0085FF" transform="translate(725.436455, 83.953912) scale(-1, -1) rotate(-160.000000) translate(-725.436455, -83.953912) " points="654.436455 147.453912 679.160488 78.2537533 759.107636 109.057669 796.436455 20.4539116"></polyline>
            </g>
        </g>
    </g>
</svg>