
<svg width="62px" height="50px" viewBox="0 0 62 50" version="1.1" xmlns="http://www.w3.org/2000/svg" xmlns:xlink="http://www.w3.org/1999/xlink">
    <!-- Generator: Sketch 49.3 (51167) - http://www.bohemiancoding.com/sketch -->
    <desc>Created with Sketch.</desc>
    <defs></defs>
    <g id="Third-design" stroke="none" stroke-width="1" fill="none" fill-rule="evenodd">
        <g id="Desktop-HD-Copy" transform="translate(-1314.000000, -920.000000)" fill="#1DA1F2" fill-rule="nonzero">
            <g id="Twitter_Logo_Blue" transform="translate(1314.000000, 920.000000)">
                <path d="M19.49776,50 C42.89408,50 55.69088,30.7620067 55.69088,14.0789056 C55.69088,13.5324835 55.69088,12.9885229 55.65368,12.4470236 C58.1431818,10.6598565 60.2921616,8.44701599 62,5.91211158 C59.6784201,6.93308826 57.2156566,7.60264445 54.69392,7.89842947 C57.3493651,6.32065325 59.3367863,3.83908485 60.28632,0.915549863 C57.7893506,2.38610275 55.0576023,3.42247507 52.20896,3.97994363 C48.2659653,-0.181246436 42.000584,-1.19971233 36.9260822,1.49564312 C31.8515804,4.19099857 29.229962,9.92985357 30.53128,15.4941878 C20.3035014,14.9853004 10.7742999,10.1907517 4.3152,2.30375716 C0.938984436,8.0723116 2.66348995,15.4519988 8.25344,19.1566922 C6.22911818,19.0971458 4.24893284,18.5551681 2.48,17.5764988 C2.48,17.6281873 2.48,17.6823373 2.48,17.7364872 C2.48165697,23.7461276 6.74994369,28.9222263 12.6852,30.1122075 C10.8124766,30.6191002 8.84759986,30.6931976 6.94152,30.3288073 C8.60795086,35.47163 13.3835049,38.9947254 18.82568,39.0961732 C14.3213429,42.6095977 8.75702759,44.5168956 3.02808,44.5111662 C2.01600085,44.5092378 1.00490608,44.4484199 0,44.3290255 C5.81717715,48.0340537 12.5857852,49.9993032 19.49776,49.9901546" id="Shape"></path>
            </g>
        </g>
    </g>
</svg>
